PathFileType	4	(X/Y/Z)	D:\telocate\uwb06-Unnamed.trc
DataRate	CameraRate	NumFrames	NumMarkers	Units	OrigDataRate	OrigDataStartFrame	OrigNumFrames
100.00	100.00	     180	0	mm	100.00	2065	     16512
Frame#	Time	
		

2065	20.640				1099.13708	-2053.46899	1195.12646	
2066	20.650				1106.48303	-2052.35352	1195.37195	
2067	20.660				1112.42200	-2051.91528	1196.53284	
2068	20.670				1122.29138	-2051.03979	1197.42102	
2069	20.680				1129.98413	-2049.83057	1197.60010	
2070	20.690				1135.80920	-2049.65601	1198.09558	
2071	20.700				1145.44153	-2048.41333	1199.49121	
2072	20.710				1152.97388	-2047.01880	1199.89636	
2073	20.720				1158.71167	-2046.77661	1200.42456	
2074	20.730				1168.35059	-2045.63940	1200.45581	
2075	20.740				1175.48071	-2044.58472	1201.30518	
2076	20.750				1181.79712	-2043.74158	1202.20728	
2077	20.760				1191.60205	-2042.07739	1202.81885	
2078	20.770				1198.96594	-2041.38708	1203.44360	
2079	20.780				1205.64514	-2040.15454	1203.74121	
2080	20.790				1215.11047	-2038.86572	1204.64441	
2081	20.800				1222.98608	-2037.41528	1204.90369	
2082	20.810				1228.75781	-2036.68445	1204.59521	
2083	20.820				1239.86377	-2035.63074	1205.55249	
2084	20.830				1246.49023	-2034.92334	1205.51746	
2085	20.840				1254.56421	-2033.62805	1205.33057	
2086	20.850				1265.00732	-2032.59241	1205.59399	
2087	20.860				1272.29919	-2031.61096	1205.30737	
2088	20.870				1283.21948	-2030.39478	1205.84790	
2089	20.880				1291.51990	-2028.97290	1205.43030	
2090	20.890				1297.99243	-2028.40100	1205.84973	
2091	20.900				1308.70435	-2027.25403	1206.02771	
2092	20.910				1316.00952	-2026.27087	1206.46533	
2093	20.920				1324.09949	-2025.21301	1206.75073	
2094	20.930				1334.40234	-2024.00586	1207.26257	
2095	20.940				1341.48608	-2022.79175	1207.27930	
2096	20.950				1351.84741	-2021.56934	1208.67200	
2097	20.960				1359.45801	-2020.82458	1209.36584	
2098	20.970				1365.73474	-2019.95068	1209.49744	
2099	20.980				1375.96460	-2019.00659	1210.65515	
2100	20.990				1382.31616	-2018.63782	1211.86426	
2101	21.000				1389.82593	-2017.25549	1212.60645	
2102	21.010				1399.33435	-2015.93115	1213.22815	
2103	21.020				1407.54736	-2014.11694	1214.59729	
2104	21.030				1413.43542	-2013.34436	1215.46606	
2105	21.040				1422.84680	-2011.74036	1216.50439	
2106	21.050				1429.59534	-2010.31384	1217.37512	
2107	21.060				1435.39136	-2008.60522	1217.60779	
2108	21.070				1443.06396	-2007.43726	1218.62305	
2109	21.080				1451.13989	-2005.55420	1219.24109	
2110	21.090				1458.96191	-2003.97327	1219.17419	
2111	21.100				1468.18701	-2001.21838	1219.41150	
2112	21.110				1476.34204	-1999.37329	1219.94421	
2113	21.120				1483.58691	-1998.47559	1219.16577	
2114	21.130				1492.63074	-1996.13208	1219.61096	
2115	21.140				1498.05969	-1994.65588	1219.21497	
2116	21.150				1507.28088	-1992.37585	1219.47974	
2117	21.160				1516.19653	-1990.84680	1219.79370	
2118	21.170				1523.93005	-1990.40039	1219.59509	
2119	21.180				1536.65356	-1988.73230	1219.34583	
2120	21.190				1546.52234	-1987.66797	1218.99548	
2121	21.200				1560.47449	-1986.77344	1218.85413	
2122	21.210				1569.12927	-1986.58069	1217.58813	
2123	21.220				1582.10181	-1986.05603	1216.88367	
2124	21.230				1590.94141	-1985.36023	1217.08398	
2125	21.240				1602.92651	-1983.90491	1215.90955	
2126	21.250				1611.07935	-1983.57715	1214.78870	
2127	21.260				1624.96252	-1982.83533	1214.46948	
2128	21.270				1634.15210	-1983.44556	1213.45508	
2129	21.280				1642.07507	-1982.97241	1212.62708	
2130	21.290				1653.56616	-1983.26880	1212.15247	
2131	21.300				1660.44287	-1982.88220	1211.18396	
2132	21.310				1671.72290	-1982.85852	1210.91296	
2133	21.320				1679.75940	-1982.64722	1210.05432	
2134	21.330				1686.77966	-1982.42200	1209.35535	
2135	21.340				1696.57861	-1981.68298	1209.08228	
2136	21.350				1703.48413	-1982.31372	1207.60217	
2137	21.360				1713.54382	-1981.93689	1207.79712	
2138	21.370				1722.45093	-1981.47021	1206.87939	
2139	21.380				1729.00476	-1981.63525	1205.62292	
2140	21.390				1737.56677	-1981.56580	1204.49512	
2141	21.400				1748.53687	-1981.56445	1203.60657	
2142	21.410				1756.63049	-1981.22510	1202.03174	
2143	21.420				1767.56079	-1980.36743	1202.09924	
2144	21.430				1774.96252	-1980.61597	1200.14648	
2145	21.440				1782.14734	-1981.10291	1199.11011	
2146	21.450				1790.83081	-1981.33142	1198.44739	
2147	21.460				1799.55444	-1980.93628	1197.66223	
2148	21.470				1807.64807	-1981.90417	1197.52588	
2149	21.480				1818.20081	-1981.19458	1197.45349	
2150	21.490				1826.31030	-1982.24426	1196.89319	
2151	21.500				1836.64832	-1982.28711	1197.32214	
2152	21.510				1844.89758	-1982.89111	1196.78345	
2153	21.520				1851.91016	-1983.51038	1195.87122	
2154	21.530				1860.78430	-1983.41296	1195.88293	
2155	21.540				1869.81018	-1983.88184	1196.05823	
2156	21.550				1881.72156	-1984.36511	1195.80469	
2157	21.560				1887.61328	-1984.76074	1195.17627	
2158	21.570				1897.94519	-1985.36194	1194.74670	
2159	21.580				1909.06128	-1985.42126	1195.13037	
2160	21.590				1916.17578	-1985.89722	1194.44397	
2161	21.600				1923.84265	-1987.44482	1193.70569	
2162	21.610				1933.18420	-1988.11853	1193.94971	
2163	21.620				1942.44873	-1988.59375	1193.27966	
2164	21.630				1951.02222	-1988.66772	1192.52441	
2165	21.640				1962.62158	-1988.73962	1192.73352	
2166	21.650				1970.80310	-1988.93274	1192.12061	
2167	21.660				1982.60181	-1989.06213	1191.83093	
2168	21.670				1989.75671	-1989.62305	1189.87854	
2169	21.680				2000.85144	-1989.42871	1189.85876	
2170	21.690				2008.82544	-1989.75867	1188.73853	
2171	21.700				2020.24304	-1989.66333	1188.05737	
2172	21.710				2029.24487	-1989.79761	1187.27527	
2173	21.720				2036.65601	-1989.76440	1186.42041	
2174	21.730				2048.29419	-1989.12952	1186.44067	
2175	21.740				2057.05176	-1989.33105	1186.03101	
2176	21.750				2063.54346	-1989.14392	1184.95215	
2177	21.760				2072.48901	-1988.71497	1185.36951	
2178	21.770				2083.65039	-1987.74475	1185.43481	
2179	21.780				2089.93188	-1987.60022	1185.59790	
2180	21.790				2098.43970	-1986.63721	1185.29431	
2181	21.800				2107.15820	-1985.26440	1185.48352	
2182	21.810				2117.69849	-1983.86304	1185.89478	
2183	21.820				2125.60864	-1983.44922	1185.66663	
2184	21.830				2131.99609	-1981.78406	1185.06104	
2185	21.840				2141.03394	-1980.94421	1184.82971	
2186	21.850				2149.53052	-1979.40283	1184.67993	
2187	21.860				2158.38232	-1978.00806	1183.58496	
2188	21.870				2168.86597	-1975.91223	1184.07971	
2189	21.880				2177.04712	-1974.40173	1183.16248	
2190	21.890				2187.54688	-1972.20874	1182.84619	
2191	21.900				2194.58203	-1970.36414	1182.50305	
2192	21.910				2202.24292	-1969.05127	1181.22400	
2193	21.920				2212.41797	-1966.34619	1181.22998	
2194	21.930				2219.03638	-1965.10229	1180.21973	
2195	21.940				2227.90649	-1963.31287	1179.68909	
2196	21.950				2236.41797	-1961.44751	1178.43628	
2197	21.960				2246.71387	-1959.19104	1178.84961	
2198	21.970				2256.81006	-1956.83533	1178.14392	
2199	21.980				2263.73926	-1955.42859	1176.74329	
2200	21.990				2270.91797	-1953.83008	1176.23364	
2201	22.000				2279.16064	-1952.11926	1175.34167	
2202	22.010				2288.12231	-1949.73596	1174.81970	
2203	22.020				2296.91919	-1947.38965	1173.94360	
2204	22.030				2305.18726	-1945.56482	1172.54834	
2205	22.040				2315.82031	-1943.13831	1171.94763	
2206	22.050				2324.99414	-1940.91089	1170.68994	
2207	22.060				2331.59448	-1939.14709	1168.76453	
2208	22.070				2339.99316	-1936.74219	1167.80994	
2209	22.080				2348.89258	-1934.46155	1166.33289	
2210	22.090				2357.47192	-1931.53015	1166.10815	
2211	22.100				2366.06030	-1929.46252	1164.93542	
2212	22.110				2373.11108	-1927.37000	1164.04553	
2213	22.120				2384.60400	-1923.58081	1164.75220	
2214	22.130				2392.18872	-1920.99133	1163.37170	
2215	22.140				2398.28345	-1919.32288	1162.51843	
2216	22.150				2406.12817	-1916.91235	1162.67615	
2217	22.160				2415.83984	-1914.19910	1162.30347	
2218	22.170				2422.12109	-1911.66467	1162.31213	
2219	22.180				2430.30811	-1908.57300	1162.32056	
2220	22.190				2439.79443	-1904.83691	1162.16711	
2221	22.200				2448.34546	-1901.86682	1162.21008	
2222	22.210				2455.40698	-1899.22217	1162.06311	
2223	22.220				2460.82617	-1896.90417	1161.75073	
2224	22.230				2468.12891	-1893.69873	1162.01135	
2225	22.240				2477.87500	-1889.44189	1162.21606	
2226	22.250				2483.85400	-1887.01074	1162.35632	
2227	22.260				2491.88013	-1883.51709	1161.94263	
2228	22.270				2499.27539	-1880.31836	1162.26819	
2229	22.280				2508.91870	-1876.81165	1162.25330	
2230	22.290				2516.80151	-1873.35950	1162.21790	
2231	22.300				2523.18921	-1870.64392	1161.58984	
2232	22.310				2530.81348	-1867.59741	1161.32605	
2233	22.320				2540.98364	-1863.53284	1161.03381	
2234	22.330				2547.45337	-1860.83057	1161.18311	
2235	22.340				2556.49927	-1857.61707	1160.61707	
2236	22.350				2565.03857	-1854.29944	1160.31995	
2237	22.360				2574.18970	-1850.57434	1159.92139	
2238	22.370				2580.71753	-1847.57739	1159.60437	
2239	22.380				2587.51514	-1844.80542	1159.12854	
2240	22.390				2595.86621	-1841.69653	1159.55017	
2241	22.400				2605.80713	-1837.12781	1159.11816	
2242	22.410				2612.11230	-1834.52197	1158.95081	
2243	22.420				2620.35205	-1831.22449	1158.79773	
2244	22.430				2630.87720	-1827.69592	1158.65112	
